<svg xmlns="http://www.w3.org/2000/svg" width="32" height="32" viewBox="0 0 32 32"><g class="nc-icon-wrapper"><rect x="1" y="4" width="30" height="24" rx="4" ry="4" fill="#0a9de0" stroke-width="0"></rect><path d="m5,4h11v12H1v-8c0-2.2077,1.7923-4,4-4Z" fill="#001b69" stroke-width="0"></path><path d="m6.5002,13.7737v2.2263h4v-2.2272l3.0371,2.2272h2.4629v-1.2411l-3.7619-2.7589h3.7619v-4h-2.74l2.74-2.0093v-1.9907h-1.441l-4.059,2.9769v-2.9769h-4v2.7935l-3.2566-2.3892c-.7675.3741-1.3895.9834-1.7856,1.7379l2.5321,1.8578H1.0002s0,0,0,0v4h3.7632l-3.7632,2.7599v1.2401h2.4642l3.0358-2.2263Z" fill="#fff" stroke-width="0"></path><path d="m1.8057,5.5891l3.2854,2.4109h1.3636l-4.0952-3.0047c-.2043.1795-.3897.3765-.5539.5938Z" fill="#ca0a2b" stroke-width="0"></path><path fill="#ca0a2b" stroke-width="0" d="M0.9998 16L6.4544 12 6.4544 13 2.3635 16 0.9998 16z"></path><path fill="#ca0a2b" stroke-width="0" d="M9.5002 16L7.5002 16 7.5002 11 1.0002 11 1.0002 9 7.5002 9 7.5002 4 9.5002 4 9.5002 9 16.0002 9 16.0002 11 9.5002 11 9.5002 16z"></path><path fill="#ca0a2b" stroke-width="0" d="M16.0002 15.6667L11.0002 12 11.0002 13 15.0911 16 16.0002 16 16.0002 15.6667z"></path><path fill="#ca0a2b" stroke-width="0" d="M16.0002 4L15.7518 4 10.2913 8.0044 11.6549 8.0044 16.0002 4.8179 16.0002 4z"></path><path d="m27.0002,4H5.0002c-2.2091,0-4,1.7908-4,4v16c0,2.2092,1.7909,4,4,4h22c2.2092,0,4-1.7908,4-4V8c0-2.2092-1.7908-4-4-4Zm3,20c0,1.6543-1.3457,3-3,3H5.0002c-1.6543,0-3-1.3457-3-3V8c0-1.6543,1.3457-3,3-3h22c1.6543,0,3,1.3457,3,3v16Z" opacity=".15" stroke-width="0"></path><path d="m27,5H5c-1.6569,0-3,1.3431-3,3v1c0-1.6569,1.3431-3,3-3h22c1.6569,0,3,1.3431,3,3v-1c0-1.6569-1.3431-3-3-3Z" fill="#fff" opacity=".2" stroke-width="0"></path><path fill="#fede02" stroke-width="0" d="M12.5663 24.6861L12.1658 23.4536 11.7654 24.6861 10.4694 24.6861 11.5179 25.4479 11.1174 26.6804 12.1658 25.9187 13.2143 26.6804 12.8138 25.4479 13.8623 24.6861 12.5663 24.6861z"></path><path fill="#fede02" stroke-width="0" d="M17.4554 18.5353L16.4069 19.2971 15.3584 18.5353 15.7589 19.7679 14.7105 20.5296 16.0064 20.5296 16.4069 21.7621 16.8074 20.5296 18.1033 20.5296 17.0549 19.7679 17.4554 18.5353z"></path><path fill="#fede02" stroke-width="0" d="M17.0549 24.0089L17.4554 22.7764 16.4069 23.5381 15.3584 22.7764 15.7589 24.0089 14.7105 24.7707 16.0064 24.7707 16.4069 26.0032 16.8074 24.7707 18.1033 24.7707 17.0549 24.0089z"></path><path fill="#fede02" stroke-width="0" d="M21.6964 12.7675L20.648 13.5292 19.5995 12.7675 20 14 18.9516 14.7617 20.2475 14.7617 20.648 15.9943 21.0485 14.7617 22.3444 14.7617 21.296 14 21.6964 12.7675z"></path><path fill="#fede02" stroke-width="0" d="M21.296 22.8214L21.6964 21.5889 20.648 22.3506 19.5995 21.5889 20 22.8214 18.9516 23.5832 20.2475 23.5832 20.648 24.8157 21.0485 23.5832 22.3444 23.5832 21.296 22.8214z"></path><path fill="#fede02" stroke-width="0" d="M25.2589 11.4103L24.2105 12.1721 23.162 11.4103 23.5625 12.6429 22.5141 13.4046 23.81 13.4046 24.2105 14.6371 24.611 13.4046 25.9069 13.4046 24.8585 12.6429 25.2589 11.4103z"></path><path fill="#fede02" stroke-width="0" d="M24.611 19.4272L24.2105 18.1947 23.81 19.4272 22.5141 19.4272 23.5625 20.1889 23.162 21.4215 24.2105 20.6597 25.2589 21.4215 24.8585 20.1889 25.9069 19.4272 24.611 19.4272z"></path><path fill="#fede02" stroke-width="0" d="M27.125 9.8407L26.7245 11.0733 27.773 10.3115 28.8214 11.0733 28.421 9.8407 29.4694 9.079 28.1735 9.079 27.773 7.8465 27.3725 9.079 26.0766 9.079 27.125 9.8407z"></path><path fill="#fede02" stroke-width="0" d="M28.1735 17.2218L27.773 15.9893 27.3725 17.2218 26.0766 17.2218 27.125 17.9836 26.7245 19.2161 27.773 18.4544 28.8214 19.2161 28.421 17.9836 29.4694 17.2218 28.1735 17.2218z"></path></g></svg>